<svg width="27" height="27" viewBox="0 0 27 27" fill="none" xmlns="http://www.w3.org/2000/svg">
<path opacity="0.3" d="M10.7968 2.61687C11.887 0.351511 15.113 0.351507 16.2032 2.61686L17.8328 6.00283C18.2635 6.89771 19.1091 7.52146 20.0913 7.6687L23.8634 8.23419C26.2995 8.5994 27.2816 11.5825 25.5389 13.3235L22.7186 16.1408C22.0324 16.8263 21.72 17.8013 21.88 18.758L22.5317 22.6555C22.9433 25.1168 20.345 26.9753 18.1486 25.7907L14.9242 24.0515C14.0353 23.572 12.9647 23.572 12.0758 24.0515L8.85137 25.7907C6.65502 26.9753 4.0567 25.1168 4.46829 22.6555L5.12004 18.758C5.28002 17.8013 4.96758 16.8263 4.28135 16.1408L1.4611 13.3235C-0.28161 11.5825 0.70048 8.5994 3.13657 8.2342L6.90875 7.6687C7.89089 7.52146 8.73653 6.89771 9.16721 6.00283L10.7968 2.61687Z" fill="#FEAD1D"/>
</svg>
